<svg width="18" height="17" viewBox="0 0 18 17" fill="none" xmlns="http://www.w3.org/2000/svg">
<path d="M17.1731 5.90041L12.0595 5.15723L9.77354 0.522936C9.71111 0.396052 9.60839 0.293336 9.48151 0.230901C9.16329 0.0738057 8.77659 0.204718 8.61749 0.522936L6.33155 5.15723L1.21792 5.90041C1.07694 5.92055 0.948037 5.98702 0.849349 6.08772C0.730041 6.21035 0.664297 6.37532 0.666563 6.5464C0.668829 6.71747 0.738919 6.88065 0.861433 7.00008L4.56122 10.6072L3.68713 15.7007C3.66663 15.8192 3.67974 15.9411 3.72497 16.0525C3.77021 16.1639 3.84575 16.2604 3.94305 16.3311C4.04034 16.4017 4.15548 16.4437 4.27542 16.4523C4.39537 16.4608 4.5153 16.4356 4.62164 16.3794L9.19551 13.9747L13.7694 16.3794C13.8943 16.4459 14.0393 16.4681 14.1782 16.4439C14.5287 16.3835 14.7643 16.0512 14.7039 15.7007L13.8298 10.6072L17.5296 7.00008C17.6303 6.90139 17.6968 6.77249 17.7169 6.63151C17.7713 6.27905 17.5256 5.95278 17.1731 5.90041Z" fill="#F1E81B"/>
</svg>
